<?xml version="1.0"?>
<svg version="1.1" xmlns="http://www.w3.org/2000/svg" width="400" height="50" style=""><path fill="#713f12" d="M27.516,26.4c0,0.168-0.084,0.308-0.28,0.42l-5.936,3.808l5.852,3.752c0.224,0.14,0.336,0.308,0.336,0.476c0,0.112-0.028,0.196-0.112,0.336l-1.092,1.736c-0.14,0.224-0.308,0.364-0.476,0.364c-0.14,0-0.308-0.084-0.504-0.224l-7.896-5.264c-0.252-0.168-0.392-0.364-0.392-0.756l0-0.728c0-0.364,0.196-0.588,0.476-0.756l8.12-5.236c0.168-0.112,0.336-0.168,0.448-0.168c0.14,0,0.252,0.084,0.364,0.28l0.98,1.652c0.056,0.112,0.112,0.196,0.112,0.308z M40.522,20.66c0,0.112-0.056,0.28-0.112,0.476l-5.796,18.76c-0.14,0.448-0.28,0.56-0.756,0.56l-1.988,0c-0.28,0-0.42-0.084-0.42-0.308c0-0.084,0.028-0.224,0.084-0.364l5.852-18.788c0.168-0.504,0.308-0.616,0.84-0.616l1.82,0c0.308,0,0.476,0.056,0.476,0.28z M54.536,31.076c0,0.364-0.224,0.588-0.504,0.756l-8.092,5.236c-0.196,0.112-0.336,0.196-0.448,0.196c-0.14,0-0.28-0.084-0.392-0.28l-0.952-1.652c-0.056-0.112-0.112-0.224-0.112-0.336c0-0.14,0.084-0.308,0.28-0.42l5.908-3.78l-5.824-3.78c-0.224-0.14-0.336-0.28-0.336-0.448c0-0.112,0.028-0.224,0.112-0.336l1.064-1.764c0.14-0.252,0.308-0.364,0.476-0.364c0.14,0,0.308,0.056,0.504,0.196l7.896,5.32c0.252,0.168,0.42,0.336,0.42,0.728l0,0.728z M71.56,40.064c0,0.532-0.084,0.672-0.644,0.672l-1.652,0c-0.504,0-0.784-0.14-0.784-0.644l0-19.376c0-0.448,0.196-0.616,0.56-0.616l1.848,0c0.448,0,0.672,0.168,0.672,0.588l0,19.376z M97.348,34.464c0,3.892-3.164,5.992-6.804,5.992c-1.68,0-3.668-0.308-5.348-0.896c-0.364-0.14-0.476-0.308-0.476-0.532c0-0.112,0-0.224,0.056-0.364l0.588-1.82c0.084-0.28,0.224-0.448,0.504-0.448c0.112,0,0.252,0.028,0.42,0.084c1.316,0.476,2.772,0.84,4.172,0.84c1.512,0,3.22-0.728,3.22-2.492c0-1.288-0.952-1.988-2.044-2.52l-3.64-1.82c-1.988-0.98-3.304-2.632-3.304-4.816c0-3.416,3.36-5.292,6.468-5.292c1.848,0,3.388,0.28,5.012,0.98c0.364,0.168,0.56,0.336,0.56,0.56c0,0.112-0.028,0.224-0.084,0.364l-0.672,1.708c-0.112,0.308-0.28,0.42-0.476,0.42c-0.14,0-0.28-0.056-0.448-0.112c-1.148-0.476-2.576-0.868-3.696-0.868c-1.316,0-2.828,0.56-2.828,2.128c0,1.148,1.064,1.82,1.988,2.268l3.108,1.512c2.212,1.064,3.724,2.548,3.724,5.124z M118.334,31.524c0,5.768-2.716,8.932-8.176,8.932c-5.908,0-8.064-3.248-8.064-8.988l0-10.052c0-0.476,0.28-0.672,0.728-0.672l2.212,0c0.476,0,0.672,0.196,0.672,0.672l0,9.744c0,4.116,1.064,6.244,4.592,6.244c3.388,0,4.452-2.24,4.452-6.244l0-9.744c0-0.476,0.252-0.672,0.7-0.672l2.212,0c0.476,0,0.672,0.196,0.672,0.672l0,10.108z M137.864,39.784c0,0.224-0.168,0.336-0.42,0.336l-2.548,0c-0.504,0-0.84-0.14-1.092-0.56l-4.032-6.58l-2.156,0l0,6.44c0,0.42-0.168,0.7-0.644,0.7l-2.296,0c-0.476,0-0.672-0.224-0.672-0.7l0-17.864c0-0.616,0.14-0.812,0.756-0.812l4.144,0c2.436,0,5.012,0.364,6.496,2.072c0.896,1.036,1.344,2.408,1.344,3.92c0,2.576-1.372,4.592-3.612,5.572l4.592,7.084c0.084,0.14,0.14,0.28,0.14,0.392z M133.076,26.792c0-2.436-1.624-3.304-4.06-3.304l-1.4,0l0,6.776l1.736,0c2.24,0,3.724-1.204,3.724-3.472z M156.33,21.08c0,0.084-0.028,0.224-0.112,0.364l-5.768,10.668l0,7.364c0,0.42-0.224,0.644-0.644,0.644l-2.352,0c-0.42,0-0.644-0.224-0.644-0.7l0-7.168l-6.076-10.836c-0.056-0.112-0.084-0.196-0.084-0.28c0-0.224,0.196-0.392,0.504-0.392l2.548,0c0.504,0,0.84,0.168,1.036,0.532l4.032,7.924l0.056,0l3.976-7.868c0.224-0.448,0.448-0.588,0.98-0.588l2.016,0c0.336,0,0.532,0.112,0.532,0.336z M176.224,39.672c0,0.28-0.14,0.448-0.504,0.448l-2.492,0c-0.588,0-0.784-0.224-0.952-0.672l-1.456-4.116l-7.084,0l-1.456,4.2c-0.112,0.364-0.308,0.588-0.756,0.588l-2.492,0c-0.28,0-0.392-0.14-0.392-0.364c0-0.084,0-0.196,0.056-0.308l6.832-18.144c0.14-0.336,0.336-0.56,0.756-0.56l2.24,0c0.42,0,0.672,0.196,0.784,0.504l6.86,18.06c0.056,0.14,0.056,0.252,0.056,0.364z M169.868,32.616l-1.988-5.908c-0.252-0.784-0.42-1.372-0.56-1.82l-0.056,0c-0.14,0.476-0.308,1.064-0.588,1.848l-1.988,5.88l5.18,0z M194.466,39.756c0,0.224-0.168,0.364-0.448,0.364l-2.8,0c-0.672,0-0.98-0.224-1.344-0.7l-6.048-7.756l-0.056,0l0,7.756c0,0.504-0.196,0.7-0.672,0.7l-2.24,0c-0.504,0-0.7-0.196-0.7-0.7l0-18.004c0-0.476,0.252-0.672,0.7-0.672l2.24,0c0.448,0,0.672,0.168,0.672,0.672l0,7.924l0.056,0l5.768-8.092c0.252-0.336,0.588-0.504,1.036-0.504l2.24,0c0.28,0,0.448,0.168,0.448,0.364c0,0.112-0.028,0.224-0.112,0.336l-6.44,8.652l7.448,9.156c0.14,0.168,0.252,0.364,0.252,0.504z M214.248,39.672c0,0.28-0.14,0.448-0.504,0.448l-2.492,0c-0.588,0-0.784-0.224-0.952-0.672l-1.456-4.116l-7.084,0l-1.456,4.2c-0.112,0.364-0.308,0.588-0.756,0.588l-2.492,0c-0.28,0-0.392-0.14-0.392-0.364c0-0.084,0-0.196,0.056-0.308l6.832-18.144c0.14-0.336,0.336-0.56,0.756-0.56l2.24,0c0.42,0,0.672,0.196,0.784,0.504l6.86,18.06c0.056,0.14,0.056,0.252,0.056,0.364z M207.892,32.616l-1.988-5.908c-0.252-0.784-0.42-1.372-0.56-1.82l-0.056,0c-0.14,0.476-0.308,1.064-0.588,1.848l-1.988,5.88l5.18,0z M234.478,39.364c0,0.616-0.252,0.756-0.672,0.756l-1.876,0c-0.42,0-0.784-0.196-1.064-0.588l-9.128-12.488l-0.056,0l0,12.348c0,0.532-0.252,0.728-0.728,0.728l-2.016,0c-0.532,0-0.756-0.14-0.756-0.7l0-17.92c0-0.588,0.252-0.756,0.756-0.756l1.82,0c0.448,0,0.672,0.14,0.952,0.532l9.212,12.656l0.056,0l0-12.46c0-0.532,0.252-0.728,0.728-0.728l2.1,0c0.588,0,0.672,0.308,0.672,0.756l0,17.864z M254.176,21.444l-0.196,1.624c-0.056,0.476-0.364,0.588-0.868,0.588l-5.068,0l0,15.82c0,0.532-0.112,0.644-0.588,0.644l-2.464,0c-0.504,0-0.588-0.112-0.588-0.616l0-15.848l-5.236,0c-0.476,0-0.644-0.196-0.644-0.672l0-1.652c0-0.42,0.196-0.588,0.616-0.588l14.168,0c0.728,0,0.924,0.224,0.868,0.7z"/><path fill="#" d=""/></svg>
